{
  "source": "C:\\Users\\Peter\\Desktop\\stuff\\MIUN\\quantitative_research\\video_compression\\videos\\BVI-HD\\BVI-HD_CDVL_videos\\ORIG\\CarpetCircleFast_1920x1080_60fps.mp4",
  "output": "C:\\Users\\Peter\\Desktop\\stuff\\MIUN\\quantitative_research\\video_compression\\compressed_videos\\BVI-HD\\vp9\\2.5\\CarpetCircleFast_1920x1080_60fps_vp9.webm",
  "codec": "vp9",
  "ok": "Input #0, mov,mp4,m4a,3gp,3g2,mj2, from 'C:\\Users\\Peter\\Desktop\\stuff\\MIUN\\quantitative_research\\video_compression\\videos\\BVI-HD\\BVI-HD_CDVL_videos\\ORIG\\CarpetCircleFast_1920x1080_60fps.mp4':\n  Metadata:\n    major_brand     : isom\n    minor_version   : 512\n    compatible_brands: isomiso2avc1mp41\n    encoder         : Lavf54.28.101\n  Duration: 00:00:05.00, start: 0.000000, bitrate: 324759 kb/s\n  Stream #0:0[0x1](und): Video: h264 (High 4:4:4 Predictive) (avc1 / 0x31637661), yuv420p(progressive), 1920x1080, 324754 kb/s, 60 fps, 60 tbr, 60 tbn (default)\n    Metadata:\n      handler_name    : VideoHandler\n      vendor_id       : [0][0][0][0]\n[out#0/webm @ 00000215745e0e40] Codec AVOption b:a (set bitrate (in bits/s)) has not been used for any stream. The most likely reason is either wrong type (e.g. a video option with no video streams) or that it is a private option of some decoder which was not actually used for any stream.\nStream mapping:\n  Stream #0:0 -> #0:0 (h264 (native) -> vp9 (libvpx-vp9))\nPress [q] to stop, [?] for help\n[libvpx-vp9 @ 0000021574fe4c00] v1.15.2-100-g40561f514\nOutput #0, webm, to 'C:\\Users\\Peter\\Desktop\\stuff\\MIUN\\quantitative_research\\video_compression\\compressed_videos\\BVI-HD\\vp9\\2.5\\CarpetCircleFast_1920x1080_60fps_vp9.webm':\n  Metadata:\n    major_brand     : isom\n    minor_version   : 512\n    compatible_brands: isomiso2avc1mp41\n    encoder         : Lavf62.3.100\n  Stream #0:0(und): Video: vp9, yuv420p(tv, progressive), 1920x1080, q=2-31, 2500 kb/s, 60 fps, 1k tbn (default)\n    Metadata:\n      encoder         : Lavc62.11.100 libvpx-vp9\n      handler_name    : VideoHandler\n      vendor_id       : [0][0][0][0]\n    Side data:\n      cpb: bitrate max/min/avg: 0/0/0 buffer size: 2500000 vbv_delay: N/A\nframe=    0 fps=0.0 q=0.0 size=       0KiB time=N/A bitrate=N/A speed=N/A elapsed=0:00:00.53    \nframe=    9 fps=8.4 q=37.0 size=       1KiB time=00:00:00.15 bitrate=  33.8kbits/s speed=0.14x elapsed=0:00:01.07    \nframe=   16 fps= 10 q=34.0 size=       1KiB time=00:00:00.26 bitrate=  19.0kbits/s speed=0.169x elapsed=0:00:01.58    \nframe=   24 fps= 11 q=32.0 size=       1KiB time=00:00:00.40 bitrate=  12.7kbits/s speed=0.189x elapsed=0:00:02.12    \nframe=   30 fps= 11 q=30.0 size=       1KiB time=00:00:00.50 bitrate=  10.1kbits/s speed=0.188x elapsed=0:00:02.65    \nframe=   36 fps= 11 q=30.0 size=       1KiB time=00:00:00.60 bitrate=   8.4kbits/s speed=0.189x elapsed=0:00:03.17    \nframe=   43 fps= 12 q=31.0 size=       1KiB time=00:00:00.71 bitrate=   7.1kbits/s speed=0.195x elapsed=0:00:03.68    \nframe=   49 fps= 12 q=21.0 size=       1KiB time=00:00:00.81 bitrate=   6.2kbits/s speed=0.194x elapsed=0:00:04.20    \nframe=   56 fps= 12 q=46.0 size=       1KiB time=00:00:00.93 bitrate=   5.4kbits/s speed=0.197x elapsed=0:00:04.74    \nframe=   62 fps= 12 q=34.0 size=       1KiB time=00:00:01.03 bitrate=   4.9kbits/s speed=0.196x elapsed=0:00:05.26    \nframe=   69 fps= 12 q=42.0 size=       1KiB time=00:00:01.15 bitrate=   4.4kbits/s speed=0.199x elapsed=0:00:05.78    \nframe=   76 fps= 12 q=36.0 size=       1KiB time=00:00:01.26 bitrate=   4.0kbits/s speed=0.201x elapsed=0:00:06.30    \nframe=   83 fps= 12 q=36.0 size=       1KiB time=00:00:01.38 bitrate=   3.7kbits/s speed=0.203x elapsed=0:00:06.82    \nframe=   89 fps= 12 q=35.0 size=       1KiB time=00:00:01.48 bitrate=   3.4kbits/s speed=0.202x elapsed=0:00:07.34    \nframe=   96 fps= 12 q=34.0 size=       1KiB time=00:00:01.60 bitrate=   3.2kbits/s speed=0.204x elapsed=0:00:07.85    \nframe=  103 fps= 12 q=56.0 size=       1KiB time=00:00:01.71 bitrate=   2.9kbits/s speed=0.204x elapsed=0:00:08.40    \nframe=  108 fps= 12 q=38.0 size=       1KiB time=00:00:01.80 bitrate=   2.8kbits/s speed=0.201x elapsed=0:00:08.96    \nframe=  116 fps= 12 q=36.0 size=       1KiB time=00:00:01.93 bitrate=   2.6kbits/s speed=0.204x elapsed=0:00:09.48    \nframe=  122 fps= 12 q=34.0 size=       1KiB time=00:00:02.03 bitrate=   2.5kbits/s speed=0.203x elapsed=0:00:10.02    \nframe=  129 fps= 12 q=26.0 size=       1KiB time=00:00:02.15 bitrate=   2.4kbits/s speed=0.204x elapsed=0:00:10.55    \nframe=  137 fps= 12 q=31.0 size=     768KiB time=00:00:02.28 bitrate=2755.4kbits/s speed=0.206x elapsed=0:00:11.07    \nframe=  144 fps= 12 q=27.0 size=     768KiB time=00:00:02.40 bitrate=2621.4kbits/s speed=0.207x elapsed=0:00:11.60    \nframe=  151 fps= 12 q=33.0 size=     768KiB time=00:00:02.51 bitrate=2499.9kbits/s speed=0.208x elapsed=0:00:12.10    \nframe=  158 fps= 13 q=30.0 size=     768KiB time=00:00:02.61 bitrate=2404.4kbits/s speed=0.207x elapsed=0:00:12.62    \nframe=  164 fps= 12 q=23.0 size=     768KiB time=00:00:02.73 bitrate=2301.8kbits/s speed=0.208x elapsed=0:00:13.14    \nframe=  171 fps= 13 q=29.0 size=     768KiB time=00:00:02.85 bitrate=2207.5kbits/s speed=0.209x elapsed=0:00:13.65    \nframe=  177 fps= 12 q=29.0 size=     768KiB time=00:00:02.95 bitrate=2132.7kbits/s speed=0.208x elapsed=0:00:14.17    \nframe=  184 fps= 13 q=28.0 size=     768KiB time=00:00:03.06 bitrate=2051.6kbits/s speed=0.209x elapsed=0:00:14.68    \nframe=  189 fps= 12 q=32.0 size=     768KiB time=00:00:03.15 bitrate=1997.3kbits/s speed=0.207x elapsed=0:00:15.20    \nframe=  197 fps= 13 q=38.0 size=     768KiB time=00:00:03.28 bitrate=1916.2kbits/s speed=0.209x elapsed=0:00:15.72    \nframe=  203 fps= 12 q=44.0 size=     768KiB time=00:00:03.38 bitrate=1859.5kbits/s speed=0.208x elapsed=0:00:16.24    \nframe=  210 fps= 13 q=36.0 size=     768KiB time=00:00:03.50 bitrate=1797.6kbits/s speed=0.209x elapsed=0:00:16.76    \nframe=  216 fps= 12 q=40.0 size=     768KiB time=00:00:03.60 bitrate=1747.6kbits/s speed=0.208x elapsed=0:00:17.28    \nframe=  223 fps= 13 q=33.0 size=     768KiB time=00:00:03.71 bitrate=1692.8kbits/s speed=0.209x elapsed=0:00:17.80    \nframe=  229 fps= 12 q=34.0 size=     768KiB time=00:00:03.81 bitrate=1648.4kbits/s speed=0.208x elapsed=0:00:18.32    \nframe=  235 fps= 12 q=31.0 size=     768KiB time=00:00:03.91 bitrate=1606.3kbits/s speed=0.208x elapsed=0:00:18.84    \nframe=  243 fps= 13 q=30.0 size=     768KiB time=00:00:04.05 bitrate=1553.4kbits/s speed=0.209x elapsed=0:00:19.37    \nframe=  250 fps= 13 q=34.0 size=     768KiB time=00:00:04.16 bitrate=1509.9kbits/s speed=0.209x elapsed=0:00:19.89    \nframe=  256 fps= 13 q=31.0 size=     768KiB time=00:00:04.26 bitrate=1474.6kbits/s speed=0.209x elapsed=0:00:20.41    \nframe=  264 fps= 13 q=30.0 size=    1536KiB time=00:00:04.40 bitrate=2859.8kbits/s speed=0.21x elapsed=0:00:20.91    \nframe=  272 fps= 13 q=31.0 size=    1536KiB time=00:00:04.53 bitrate=2775.6kbits/s speed=0.211x elapsed=0:00:21.44    \nframe=  276 fps= 13 q=30.0 size=    1536KiB time=00:00:04.60 bitrate=2735.4kbits/s speed=0.209x elapsed=0:00:21.97    \nframe=  276 fps= 12 q=30.0 size=    1536KiB time=00:00:04.60 bitrate=2735.4kbits/s speed=0.204x elapsed=0:00:22.49    \nframe=  276 fps= 12 q=30.0 size=    1536KiB time=00:00:04.60 bitrate=2735.4kbits/s speed= 0.2x elapsed=0:00:23.01    \nframe=  276 fps= 12 q=30.0 size=    1536KiB time=00:00:04.60 bitrate=2735.4kbits/s speed=0.195x elapsed=0:00:23.54    \n[out#0/webm @ 00000215745e0e40] video:1937KiB audio:0KiB subtitle:0KiB other streams:0KiB global headers:0KiB muxing overhead: 0.144056%\nframe=  300 fps= 13 q=28.0 Lsize=    1940KiB time=00:00:05.00 bitrate=3177.8kbits/s speed=0.212x elapsed=0:00:23.62    \n",
  "seconds": 23.850656270980835,
  "probe_out": {}
}